<svg xmlns="http://www.w3.org/2000/svg" viewBox="1.735 1.456 218.824 218.844"><circle cx="-13.058" cy="7.906" r="11" style="fill: rgb(207, 214, 30);" transform="matrix(9.946547, 0, 0, 9.946547, 241.028992, 32.230671)"></circle><path d="M -8.283 4.346 C -8.283 4.346 -9.645 3.28 -11.252 3.158 L -11.397 3.448 C -9.944 3.804 -9.277 4.313 -8.58 4.939 C -9.781 4.326 -10.967 3.752 -13.034 3.752 C -15.1 3.752 -16.286 4.326 -17.487 4.939 C -16.79 4.313 -15.997 3.747 -14.67 3.448 L -14.815 3.158 C -16.501 3.318 -17.783 4.346 -17.783 4.346 C -17.783 4.346 -19.304 6.55 -19.565 10.877 C -18.032 12.644 -15.705 12.658 -15.705 12.658 L -15.219 12.009 C -16.045 11.722 -16.977 11.21 -17.783 10.283 C -16.822 11.01 -15.371 11.768 -13.033 11.768 C -10.696 11.768 -9.245 11.011 -8.283 10.283 C -9.089 11.21 -10.022 11.722 -10.848 12.009 L -10.362 12.658 C -10.362 12.658 -8.035 12.644 -6.502 10.877 C -6.763 6.55 -8.283 4.346 -8.283 4.346 Z M -14.963 9.689 C -15.537 9.689 -16.002 9.158 -16.002 8.502 C -16.002 7.846 -15.537 7.314 -14.963 7.314 C -14.389 7.314 -13.924 7.846 -13.924 8.502 C -13.924 9.158 -14.389 9.689 -14.963 9.689 Z M -11.104 9.689 C -11.678 9.689 -12.143 9.158 -12.143 8.502 C -12.143 7.846 -11.678 7.314 -11.104 7.314 C -10.53 7.314 -10.065 7.846 -10.065 8.502 C -10.065 9.158 -10.53 9.689 -11.104 9.689 Z" style="fill: rgb(255, 255, 255);" transform="matrix(9.946547, 0, 0, 9.946547, 241.028992, 32.230671)"></path><path d="M -20.837 15.686 C -18.846 17.677 -16.096 18.908 -13.058 18.908 C -6.983 18.908 -2.058 13.983 -2.058 7.908 C -2.058 4.871 -3.29 2.121 -5.28 0.13 L -20.837 15.686 Z" opacity="0.1" style="fill: rgb(35, 31, 32);" transform="matrix(9.946547, 0, 0, 9.946547, 241.028992, 32.230671)"></path></svg>